<?xml version="1.0" encoding="UTF-8" standalone="no"?>
<!DOCTYPE svg PUBLIC "-//W3C//DTD SVG 1.1//EN" "http://www.w3.org/Graphics/SVG/1.1/DTD/svg11.dtd">
<svg width="100%" height="100%" viewBox="0 0 3544 3544" version="1.1" xmlns="http://www.w3.org/2000/svg" xmlns:xlink="http://www.w3.org/1999/xlink" xml:space="preserve" xmlns:serif="http://www.serif.com/" style="fill-rule:evenodd;clip-rule:evenodd;stroke-linecap:round;stroke-linejoin:round;stroke-miterlimit:1.5;">
    <g transform="matrix(1.42385,0,0,1.42385,40.7349,49.701)">
        <g>
            <g>
                <path d="M227,877C227,877 220.366,1032.11 94,1125C94,1125 62.513,1161.9 112,1156C112,1156 332.008,1162.26 365,1171C365,1171 384.567,1172.82 394,1098C394,1098 419.557,931.247 355,869C355,869 296.878,906.07 227,877Z" style="fill:rgb(255,255,1);stroke:black;stroke-width:10.24px;"/>
                <g transform="matrix(0.61073,-1.4611,0.922642,0.385657,-285.643,912.923)">
                    <rect x="175" y="497" width="65" height="309" style="fill:rgb(255,255,1);stroke:black;stroke-width:7.73px;"/>
                </g>
                <path d="M318,694C318,694 408.049,620.423 403,440C403,440 396.401,398.835 436,440L603,611C603,611 621.009,634.576 597,657C597,657 501.017,829.733 378,788L318,694Z" style="fill:rgb(255,255,1);stroke:black;stroke-width:10.24px;"/>
                <g transform="matrix(1,0,0,1,4,-12)">
                    <circle cx="279" cy="805" r="111" style="fill:rgb(255,255,1);stroke:black;stroke-width:10.24px;"/>
                </g>
            </g>
            <g transform="matrix(0.730663,0.682738,-0.682738,0.730663,1179.14,-515.807)">
                <path d="M227,877C227,877 220.366,1032.11 94,1125C94,1125 62.513,1161.9 112,1156C112,1156 332.008,1162.26 365,1171C365,1171 384.567,1172.82 394,1098C394,1098 419.557,931.247 355,869C355,869 296.878,906.07 227,877Z" style="fill:rgb(255,255,1);stroke:black;stroke-width:10.24px;"/>
                <g transform="matrix(0.61073,-1.4611,0.922642,0.385657,-285.643,912.923)">
                    <rect x="175" y="497" width="65" height="309" style="fill:rgb(255,255,1);stroke:black;stroke-width:7.73px;"/>
                </g>
                <path d="M318,694C318,694 408.049,620.423 403,440C403,440 396.401,398.835 436,440L603,611C603,611 621.009,634.576 597,657C597,657 501.017,829.733 378,788L318,694Z" style="fill:rgb(255,255,1);stroke:black;stroke-width:10.24px;"/>
                <g transform="matrix(1,0,0,1,4,-12)">
                    <circle cx="279" cy="805" r="111" style="fill:rgb(255,255,1);stroke:black;stroke-width:10.24px;"/>
                </g>
            </g>
            <g transform="matrix(-0.00855381,0.999963,-0.999963,-0.00855381,2414.54,2.57108)">
                <path d="M227,877C227,877 220.366,1032.11 94,1125C94,1125 62.513,1161.9 112,1156C112,1156 332.008,1162.26 365,1171C365,1171 384.567,1172.82 394,1098C394,1098 419.557,931.247 355,869C355,869 296.878,906.07 227,877Z" style="fill:rgb(255,255,1);stroke:black;stroke-width:10.24px;"/>
                <g transform="matrix(0.61073,-1.4611,0.922642,0.385657,-285.643,912.923)">
                    <rect x="175" y="497" width="65" height="309" style="fill:rgb(255,255,1);stroke:black;stroke-width:7.73px;"/>
                </g>
                <path d="M318,694C318,694 408.049,620.423 403,440C403,440 396.401,398.835 436,440L603,611C603,611 621.009,634.576 597,657C597,657 501.017,829.733 378,788L318,694Z" style="fill:rgb(255,255,1);stroke:black;stroke-width:10.24px;"/>
                <g transform="matrix(1,0,0,1,4,-12)">
                    <circle cx="279" cy="805" r="111" style="fill:rgb(255,255,1);stroke:black;stroke-width:10.24px;"/>
                </g>
            </g>
            <g transform="matrix(-0.65954,0.75167,-0.75167,-0.65954,2947.14,1131.98)">
                <path d="M227,877C227,877 220.366,1032.11 94,1125C94,1125 62.513,1161.9 112,1156C112,1156 332.008,1162.26 365,1171C365,1171 384.567,1172.82 394,1098C394,1098 419.557,931.247 355,869C355,869 296.878,906.07 227,877Z" style="fill:rgb(255,255,1);stroke:black;stroke-width:10.24px;"/>
                <g transform="matrix(0.61073,-1.4611,0.98579,0.412052,-317.027,899.805)">
                    <rect x="175" y="497" width="65" height="309" style="fill:rgb(255,255,1);stroke:black;stroke-width:7.58px;"/>
                </g>
                <path d="M318,694C318,694 408.049,620.423 403,440C403,440 396.401,398.835 436,440L603,611C603,611 621.009,634.576 597,657C597,657 501.017,829.733 378,788L318,694Z" style="fill:rgb(255,255,1);stroke:black;stroke-width:10.24px;"/>
                <g transform="matrix(1,0,0,1,4,-12)">
                    <circle cx="279" cy="805" r="111" style="fill:rgb(255,255,1);stroke:black;stroke-width:10.24px;"/>
                </g>
            </g>
            <g transform="matrix(-0.999998,-0.00195152,0.00195152,-0.999998,2449.86,2387.37)">
                <path d="M227,877C227,877 220.366,1032.11 94,1125C94,1125 62.513,1161.9 112,1156C112,1156 332.008,1162.26 365,1171C365,1171 384.567,1172.82 394,1098C394,1098 419.557,931.247 355,869C355,869 296.878,906.07 227,877Z" style="fill:rgb(255,255,1);stroke:black;stroke-width:10.24px;"/>
                <g transform="matrix(0.61073,-1.4611,0.98579,0.412052,-317.027,899.805)">
                    <rect x="175" y="497" width="65" height="309" style="fill:rgb(255,255,1);stroke:black;stroke-width:7.58px;"/>
                </g>
                <path d="M318,694C318,694 408.049,620.423 403,440C403,440 396.401,398.835 436,440L603,611C603,611 621.009,634.576 597,657C597,657 501.017,829.733 378,788L318,694Z" style="fill:rgb(255,255,1);stroke:black;stroke-width:10.24px;"/>
                <g transform="matrix(1,0,0,1,4,-12)">
                    <circle cx="279" cy="805" r="111" style="fill:rgb(255,255,1);stroke:black;stroke-width:10.24px;"/>
                </g>
            </g>
            <g transform="matrix(-0.723748,-0.690064,0.690064,-0.723748,1283.4,2913.02)">
                <path d="M227,877C227,877 220.366,1032.11 94,1125C94,1125 62.513,1161.9 112,1156C112,1156 332.008,1162.26 365,1171C365,1171 384.567,1172.82 394,1098C394,1098 419.557,931.247 355,869C355,869 296.878,906.07 227,877Z" style="fill:rgb(255,255,1);stroke:black;stroke-width:10.24px;"/>
                <g transform="matrix(0.61073,-1.4611,0.98579,0.412052,-317.027,899.805)">
                    <rect x="175" y="497" width="65" height="309" style="fill:rgb(255,255,1);stroke:black;stroke-width:7.58px;"/>
                </g>
                <path d="M318,694C318,694 408.049,620.423 403,440C403,440 396.401,398.835 436,440L603,611C603,611 621.009,634.576 597,657C597,657 501.017,829.733 378,788L318,694Z" style="fill:rgb(255,255,1);stroke:black;stroke-width:10.24px;"/>
                <g transform="matrix(1,0,0,1,4,-12)">
                    <circle cx="279" cy="805" r="111" style="fill:rgb(255,255,1);stroke:black;stroke-width:10.24px;"/>
                </g>
            </g>
            <g transform="matrix(-0.0110632,-0.999939,0.999939,-0.0110632,43.1952,2423.51)">
                <path d="M227,877C227,877 220.366,1032.11 94,1125C94,1125 62.513,1161.9 112,1156C112,1156 332.008,1162.26 365,1171C365,1171 384.567,1172.82 394,1098C394,1098 419.557,931.247 355,869C355,869 296.878,906.07 227,877Z" style="fill:rgb(255,255,1);stroke:black;stroke-width:10.24px;"/>
                <g transform="matrix(0.61073,-1.4611,0.98579,0.412052,-317.027,899.805)">
                    <rect x="175" y="497" width="65" height="309" style="fill:rgb(255,255,1);stroke:black;stroke-width:7.58px;"/>
                </g>
                <path d="M318,694C318,694 408.049,620.423 403,440C403,440 396.401,398.835 436,440L603,611C603,611 621.009,634.576 597,657C597,657 501.017,829.733 378,788L318,694Z" style="fill:rgb(255,255,1);stroke:black;stroke-width:10.24px;"/>
                <g transform="matrix(1,0,0,1,4,-12)">
                    <circle cx="279" cy="805" r="111" style="fill:rgb(255,255,1);stroke:black;stroke-width:10.24px;"/>
                </g>
            </g>
            <g transform="matrix(0.699644,-0.714492,0.714492,0.699644,-489.302,1219.33)">
                <path d="M227,877C227,877 220.366,1032.11 94,1125C94,1125 62.513,1161.9 112,1156C112,1156 332.008,1162.26 365,1171C365,1171 384.567,1172.82 394,1098C394,1098 419.557,931.247 355,869C355,869 296.878,906.07 227,877Z" style="fill:rgb(255,255,1);stroke:black;stroke-width:10.24px;"/>
                <g transform="matrix(0.61073,-1.4611,0.98579,0.412052,-317.027,899.805)">
                    <rect x="175" y="497" width="65" height="309" style="fill:rgb(255,255,1);stroke:black;stroke-width:7.58px;"/>
                </g>
                <path d="M318,694C318,694 408.049,620.423 403,440C403,440 396.401,398.835 436,440L603,611C603,611 621.009,634.576 597,657C597,657 501.017,829.733 378,788L318,694Z" style="fill:rgb(255,255,1);stroke:black;stroke-width:10.24px;"/>
                <g transform="matrix(1,0,0,1,4,-12)">
                    <circle cx="279" cy="805" r="111" style="fill:rgb(255,255,1);stroke:black;stroke-width:10.24px;"/>
                </g>
            </g>
        </g>
        <g transform="matrix(1.13146,0,0,1.13146,-219.237,-168.979)">
            <circle cx="1259.91" cy="1209.91" r="494.907" style="fill:rgb(2,140,251);"/>
        </g>
        <g opacity="0.75">
            <g transform="matrix(1.35349,0,0,1.04692,-478.27,-58.2782)">
                <ellipse cx="1245.5" cy="1199" rx="107.5" ry="532" style="fill:none;stroke:black;stroke-width:4.84px;"/>
            </g>
            <g transform="matrix(2.88837,0,0,1.04692,-2384.97,-58.2782)">
                <ellipse cx="1245.5" cy="1199" rx="107.5" ry="532" style="fill:none;stroke:black;stroke-width:2.69px;"/>
            </g>
            <g transform="matrix(4.22326,0,0,1.04692,-4051.07,-58.2782)">
                <ellipse cx="1245.5" cy="1199" rx="107.5" ry="532" style="fill:none;stroke:black;stroke-width:1.9px;"/>
            </g>
        </g>
        <g>
            <path d="M1013,1715C1013,1715 1215,1694 1409,1715" style="fill:none;stroke:black;stroke-width:5.85px;"/>
            <g transform="matrix(1,0,0,-1,-12.9188,2404.25)">
                <path d="M1013,1715C1013,1715 1215,1694 1409,1715" style="fill:none;stroke:black;stroke-width:5.85px;"/>
            </g>
            <path d="M824,1583.27C1080.61,1627.91 1343.06,1627.03 1611,1583.27" style="fill:none;stroke:black;stroke-width:5.85px;"/>
            <g transform="matrix(1,0,0,1,-1.71869,-131.549)">
                <path d="M704,1541.55C962.11,1632.31 1451.63,1633.53 1718,1541.55" style="fill:none;stroke:black;stroke-width:5.85px;"/>
            </g>
            <g transform="matrix(1,0,0,-1,-1.71869,2457.23)">
                <path d="M704,1541.55C962.11,1632.31 1451.63,1633.53 1718,1541.55" style="fill:none;stroke:black;stroke-width:5.85px;"/>
            </g>
            <g transform="matrix(1,0,0,1,0.490567,-314.181)">
                <path d="M649,1541.55C896.937,1630.56 1486.75,1631.67 1764,1541.55" style="fill:none;stroke:black;stroke-width:5.85px;"/>
            </g>
            <g transform="matrix(1,0,0,-1,2.78131,2665.12)">
                <path d="M649,1541.55C896.937,1630.56 1486.75,1631.67 1764,1541.55" style="fill:none;stroke:black;stroke-width:5.85px;"/>
            </g>
            <path d="M703,1016C703,1016 733,1034.8 735,1056.4C737,1078 747,1057 753,1051C753,1051 762,1007 780,1007C780,1007 778,1034 796,1033C796,1033 835,1030 834,1065C834,1065 872,1176.67 909,1196.33C909,1196.33 919,1231.97 979,1199.99C979,1199.99 991,1239 968,1259C968,1259 877,1312 885,1360C885,1360 898,1440 918,1470C918,1470 922,1444 945,1450C945,1450 968,1455 968,1414C968,1414 980,1382 984,1450C984,1450 957,1534 968,1549C968,1549 936,1562 918,1513C918,1513 873,1496 872,1529C872,1529 852,1575 816,1572C816,1572 741,1551 703,1414C665,1277 686,1349 686,1349C686,1349 735,1458 735,1392C735,1392 737,1355 720,1360C720,1360 713,1352 708,1321C708,1321 718,1219 676,1259C676,1259 599,1127 703,1016Z" style="fill:rgb(1,1,1);"/>
            <path d="M703,953C703,953 746,918 754,953C754,953 762,965 770,953C770,953 755.717,990 786,989C786,989 775.717,1044 796,1007L796,971C796,971 768,982 786,945C786,945 781.566,975 816.283,982C816.283,982 849,987 863,975C863,975 881.717,978 849,1030C849,1030 832,1033 863,1062C863,1062 877,1120 912,1148C912,1148 913,1221 942,1179C942,1179 1016,1166 1050,1114C1050,1114 1075,1053 1016,1077C1016,1077 994,1107 958,1030C958,1030 972,988 994,1038C994,1038 988,1066 1034,1048C1080,1030 1028,1076 1093,1062C1093,1062 1164,1052 1173,1107C1173,1107 1169,1124 1199,1107C1199,1107 1187.84,1143 1214,1186C1214,1186 1237,1215 1233,1244C1233,1244 1282,1212 1267,1168C1267,1168 1329,1140 1333,1101C1333,1101 1382,1088 1390,1101C1390,1101 1400,1115.67 1414,1156C1414,1156 1438,1133 1446,1148C1446,1148 1433,1189 1446,1208C1446,1208 1451,1232 1458,1182C1458,1182 1485,1224 1517,1208C1517,1208 1540,1213 1531,1172C1531,1172 1522,1147 1500,1135C1500,1135 1490,1130 1506,1124C1506,1124 1517,1116 1527,1101C1527,1101 1549.66,1081.67 1541,1139C1541,1139 1542,1156 1553,1135L1557,1101C1557,1101 1627,1098 1619,1048C1619,1048 1612,1032 1619,1007C1626,982 1593,1031 1602,994C1602,994 1607,982 1615,982C1615,982 1625,979 1593,975C1593,975 1568,943 1619,953C1619,953 1624,952 1649,1000C1649,1000 1661,1040 1663,982C1663,982 1629,961 1667,953C1667,953 1678,954 1711,945C1711,945 1641,676.444 1367,654C1367,654 1371,677 1327,683C1327,683 1325,712 1290,683C1290,683 1253,669 1260,695C1260,695 1208,671 1214,705C1214,705 1184,727 1199,695C1199,695 1166,662 1173,715C1173,715 1152,728 1151,695C1151,695 1156,674 1135,720C1135,720 1119,735 1106,715C1106,715 1087,698 1084,728C1084,728 1050,715 1050,737C1050,737 1027,740 1034,715C1034,715 1016,721 975,753C975,753 921,776 994,715C994,715 998,719 1016,679C1016,679 757.434,734 703,953Z" style="fill:rgb(1,1,1);"/>
            <path d="M1489,1362C1489,1362 1441,1304.63 1422,1266C1422,1266 1444,1255.09 1459,1294.54C1459,1294.54 1486,1330 1511,1334C1511,1334 1519,1363 1489,1362Z" style="fill:rgb(1,1,1);"/>
            <path d="M1441,1222C1441,1222 1445,1261.09 1482,1294.54C1482,1294.54 1517,1307.23 1482,1264.62C1482,1264.62 1446,1205 1441,1222Z" style="fill:rgb(1,1,1);"/>
            <path d="M1511.97,1362.03C1511.97,1362.03 1480,1387 1555,1384C1555,1384 1570,1394 1581,1384C1581,1384 1609.94,1373.05 1511.97,1362.03Z" style="fill:rgb(1,1,1);"/>
            <path d="M1535,1306C1535,1306 1558,1302.37 1562,1280C1562,1280 1561,1264.62 1580,1264.62C1580,1264.62 1584,1246.37 1599,1252C1599,1252 1578,1274 1605,1280C1605,1280 1618,1285 1590,1306C1590,1306 1599,1352 1567,1340C1567,1340 1571.19,1320 1545.09,1330C1545.09,1330 1535,1332 1535,1306Z" style="fill:rgb(1,1,1);"/>
            <path d="M1608.01,1351C1608.01,1351 1602,1315.38 1620,1290C1620,1290 1621,1274 1651,1290C1651,1290 1667,1289.62 1670,1296.31C1670,1296.31 1608,1282 1639,1305C1639,1305 1637,1304.68 1651,1309C1651,1309 1668,1317.64 1633,1313.32C1633,1313.32 1627,1326 1639,1332C1639,1332 1653,1367.54 1627,1332C1627,1332 1607,1313.56 1620,1351C1620,1351 1618.03,1370 1608.01,1351Z" style="fill:rgb(1,1,1);"/>
            <path d="M1728,1342C1728,1342 1676,1346 1681,1309C1681,1309 1684,1276 1698,1309C1698,1309 1690,1329.54 1717,1313C1717,1313 1732,1296 1751,1313C1751,1313 1765,1336 1751,1352C1751,1352 1739,1357.99 1728,1342Z" style="fill:rgb(1,1,1);"/>
            <path d="M1690,1384C1690,1384 1673.88,1416 1718.94,1419C1718.94,1419 1650.03,1583 1608.01,1573C1608.01,1573 1618,1540.73 1582,1562C1582,1562 1531,1591 1554,1548C1554,1548 1564,1534 1539,1541C1539,1541 1511,1542 1564,1485C1564,1485 1662.03,1437 1608.01,1439C1608.01,1439 1578,1433 1651,1419C1651,1419 1699.34,1360 1690,1384Z" style="fill:rgb(1,1,1);"/>
            <path d="M1276,1217C1276,1217 1259,1250.67 1276,1266C1276,1266 1294,1268 1276,1217Z"/>
            <path d="M1619,1144L1619,1183C1619,1183 1642,1185.13 1648,1200.29C1654,1215.44 1648,1196.33 1648,1196.33C1648,1196.33 1580,1206 1593,1232C1593,1232 1602.64,1246.27 1619,1217C1619,1217 1635,1202 1648,1217C1648,1217 1668,1222.67 1662,1196.33C1662,1196.33 1653,1180 1636,1171C1636,1171 1632,1160 1634,1150C1634,1150 1644,1145 1636,1139C1636,1139 1615,1131 1619,1144Z"/>
            <path d="M1672,1026C1672,1026 1687,1003 1699,1008C1699,1008 1720,1014 1726,1003C1726,1003 1740,1019 1706,1018C1706,1018 1688,1039 1672,1026"/>
        </g>
        <g transform="matrix(0.983621,0,0,0.983621,5.20551,-133.908)">
            <clipPath id="_clip1">
                <rect x="468.468" y="1356.11" width="1551.41" height="779.333"/>
            </clipPath>
            <g clip-path="url(#_clip1)">
                <path d="M1224.11,654C1611.61,654 1926.21,968.603 1926.21,1356.11C1926.21,1743.61 1611.61,2058.21 1224.11,2058.21C836.603,2058.21 522,1743.61 522,1356.11C522,968.603 836.603,654 1224.11,654ZM1224.11,801.442C1530.23,801.442 1778.77,1049.98 1778.77,1356.11C1778.77,1662.23 1530.23,1910.77 1224.11,1910.77C917.978,1910.77 669.442,1662.23 669.442,1356.11C669.442,1049.98 917.978,801.442 1224.11,801.442Z" style="fill:white;stroke:black;stroke-width:10.41px;"/>
            </g>
        </g>
        <g transform="matrix(0.983621,0,0,-0.983621,5.2201,2534.18)">
            <clipPath id="_clip2">
                <rect x="468.468" y="1356.11" width="1551.41" height="779.333"/>
            </clipPath>
            <g clip-path="url(#_clip2)">
                <path d="M1224.11,654C1611.61,654 1926.21,968.603 1926.21,1356.11C1926.21,1743.61 1611.61,2058.21 1224.11,2058.21C836.603,2058.21 522,1743.61 522,1356.11C522,968.603 836.603,654 1224.11,654ZM1224.11,801.442C1530.23,801.442 1778.77,1049.98 1778.77,1356.11C1778.77,1662.23 1530.23,1910.77 1224.11,1910.77C917.978,1910.77 669.442,1662.23 669.442,1356.11C669.442,1049.98 917.978,801.442 1224.11,801.442Z" style="fill:rgb(255,33,0);stroke:black;stroke-width:10.41px;"/>
            </g>
        </g>
        <g>
            <g transform="matrix(-0.996814,-0.0797625,0.0797625,-0.996814,2159.17,3674.67)">
                <text x="1128.37px" y="1813.46px" style="font-family:'Arial-BoldMT', 'Arial', sans-serif;font-weight:700;font-size:104.167px;">A</text>
            </g>
            <g transform="matrix(-0.994206,0.107494,-0.107494,-0.994206,2640.3,3449.43)">
                <text x="1128.37px" y="1813.46px" style="font-family:'Arial-BoldMT', 'Arial', sans-serif;font-weight:700;font-size:104.167px;">A</text>
            </g>
            <g transform="matrix(-0.698567,-0.715545,0.715545,-0.698567,317.973,3706.03)">
                <text x="1128.37px" y="1813.46px" style="font-family:'Arial-BoldMT', 'Arial', sans-serif;font-weight:700;font-size:104.167px;">A</text>
            </g>
            <g transform="matrix(-0.525851,-0.850577,0.850577,-0.525851,-182.408,3486.75)">
                <text x="1128.37px" y="1813.46px" style="font-family:'Arial-BoldMT', 'Arial', sans-serif;font-weight:700;font-size:104.167px;">S</text>
            </g>
            <g transform="matrix(-0.979619,-0.200864,0.200864,-0.979619,1831.92,3766.47)">
                <text x="1128.37px" y="1813.46px" style="font-family:'Arial-BoldMT', 'Arial', sans-serif;font-weight:700;font-size:104.167px;">S</text>
            </g>
            <g transform="matrix(-0.740757,-0.671773,0.671773,-0.740757,542.406,3812.51)">
                <text x="1128.37px" y="1813.46px" style="font-family:'Arial-BoldMT', 'Arial', sans-serif;font-weight:700;font-size:104.167px;">S</text>
            </g>
            <g transform="matrix(-0.787626,-0.616153,0.616153,-0.787626,633.216,3776.36)">
                <text x="1128.37px" y="1813.46px" style="font-family:'Arial-BoldMT', 'Arial', sans-serif;font-weight:700;font-size:104.167px;">I</text>
            </g>
            <g transform="matrix(-0.512745,-0.858541,0.858541,-0.512745,-252.672,3403.39)">
                <text x="1128.37px" y="1813.46px" style="font-family:'Arial-BoldMT', 'Arial', sans-serif;font-weight:700;font-size:104.167px;">I</text>
            </g>
            <g transform="matrix(-0.275267,-0.961368,0.961368,-0.275267,-754.588,3034.62)">
                <text x="1128.37px" y="1813.46px" style="font-family:'Arial-BoldMT', 'Arial', sans-serif;font-weight:700;font-size:104.167px;">P</text>
            </g>
            <g transform="matrix(-0.110643,-0.99386,0.99386,-0.110643,-1025.76,2693.23)">
                <text x="1128.37px" y="1813.46px" style="font-family:'Arial-BoldMT', 'Arial', sans-serif;font-weight:700;font-size:104.167px;">E</text>
            </g>
            <g transform="matrix(-0.0719134,-0.997411,0.997411,-0.0719134,-1094.66,2540.44)">
                <text x="1128.37px" y="1813.46px" style="font-family:'Arial-BoldMT', 'Arial', sans-serif;font-weight:700;font-size:104.167px;">R</text>
            </g>
            <g transform="matrix(0.00127831,-0.999999,0.999999,0.00127831,-1184.89,2319.77)">
                <text x="1128.37px" y="1813.46px" style="font-family:'Arial-BoldMT', 'Arial', sans-serif;font-weight:700;font-size:104.167px;">U</text>
            </g>
            <g transform="matrix(0.144745,-0.989469,0.989469,0.144745,-1314.46,1958.04)">
                <text x="1128.37px" y="1813.46px" style="font-family:'Arial-BoldMT', 'Arial', sans-serif;font-weight:700;font-size:104.167px;">S</text>
            </g>
            <g transform="matrix(0.33394,-0.942594,0.942594,0.33394,-1427.03,1484.45)">
                <text x="1128.37px" y="1813.46px" style="font-family:'Arial-BoldMT', 'Arial', sans-serif;font-weight:700;font-size:104.167px;">A</text>
            </g>
            <g transform="matrix(0.486451,-0.873708,0.873708,0.486451,-1443.13,1045.4)">
                <text x="1128.37px" y="1813.46px" style="font-family:'Arial-BoldMT', 'Arial', sans-serif;font-weight:700;font-size:104.167px;">H</text>
            </g>
            <g transform="matrix(0.689938,-0.723868,0.723868,0.689938,-1365.19,424.618)">
                <text x="1128.37px" y="1813.46px" style="font-family:'Arial-BoldMT', 'Arial', sans-serif;font-weight:700;font-size:104.167px;">A</text>
            </g>
            <g transform="matrix(0.740284,-0.672294,0.672294,0.740284,-1264.64,209.699)">
                <text x="1128.37px" y="1813.46px" style="font-family:'Arial-BoldMT', 'Arial', sans-serif;font-weight:700;font-size:104.167px;">A</text>
            </g>
            <g transform="matrix(-0.917226,-0.398367,0.398367,-0.917226,1319.82,3854.89)">
                <text x="1128.37px" y="1813.46px" style="font-family:'Arial-BoldMT', 'Arial', sans-serif;font-weight:700;font-size:104.167px;">O</text>
            </g>
            <g transform="matrix(0.808604,-0.588353,0.588353,0.808604,-1121.76,-70.3929)">
                <text x="1128.37px" y="1813.46px" style="font-family:'Arial-BoldMT', 'Arial', sans-serif;font-weight:700;font-size:104.167px;">N</text>
            </g>
            <g transform="matrix(0.926927,-0.375243,0.375243,0.926927,-757.289,-580.015)">
                <text x="1128.37px" y="1813.46px" style="font-family:'Arial-BoldMT', 'Arial', sans-serif;font-weight:700;font-size:104.167px;">J</text>
            </g>
            <g transform="matrix(0.972372,-0.233437,0.233437,0.972372,-485.889,-853.153)">
                <text x="1128.37px" y="1813.46px" style="font-family:'Arial-BoldMT', 'Arial', sans-serif;font-weight:700;font-size:104.167px;">A</text>
            </g>
            <g transform="matrix(0.993718,-0.111911,0.111911,0.993718,-206.765,-1049.68)">
                <text x="1128.37px" y="1813.46px" style="font-family:'Arial-BoldMT', 'Arial', sans-serif;font-weight:700;font-size:104.167px;">S</text>
            </g>
            <g transform="matrix(0.999592,0.0285766,-0.0285766,0.999592,126.678,-1224.64)">
                <text x="1128.37px" y="1813.46px" style="font-family:'Arial-BoldMT', 'Arial', sans-serif;font-weight:700;font-size:104.167px;">A</text>
            </g>
            <g transform="matrix(0.981325,0.192358,-0.192358,0.981325,563.185,-1368.48)">
                <text x="1128.37px" y="1813.46px" style="font-family:'Arial-BoldMT', 'Arial', sans-serif;font-weight:700;font-size:104.167px;">T</text>
            </g>
            <g transform="matrix(0.930317,0.366755,-0.366755,0.930317,1010.13,-1455.52)">
                <text x="1128.37px" y="1813.46px" style="font-family:'Arial-BoldMT', 'Arial', sans-serif;font-weight:700;font-size:104.167px;">E</text>
            </g>
            <g transform="matrix(0.867941,0.496667,-0.496667,0.867941,1395.36,-1455.76)">
                <text x="1128.37px" y="1813.46px" style="font-family:'Arial-BoldMT', 'Arial', sans-serif;font-weight:700;font-size:104.167px;">N</text>
            </g>
            <g transform="matrix(0.81646,0.577403,-0.577403,0.81646,1674.91,-1404.67)">
                <text x="1128.37px" y="1813.46px" style="font-family:'Arial-BoldMT', 'Arial', sans-serif;font-weight:700;font-size:104.167px;">A</text>
            </g>
            <g transform="matrix(0.459941,0.88795,-0.88795,0.459941,2771.17,-986.09)">
                <text x="1128.37px" y="1813.46px" style="font-family:'Arial-BoldMT', 'Arial', sans-serif;font-weight:700;font-size:104.167px;">A</text>
            </g>
            <g transform="matrix(0.355196,0.934792,-0.934792,0.355196,3037.26,-741.679)">
                <text x="1128.37px" y="1813.46px" style="font-family:'Arial-BoldMT', 'Arial', sans-serif;font-weight:700;font-size:104.167px;">K</text>
            </g>
            <g transform="matrix(0.231472,0.972841,-0.972841,0.231472,3268.05,-477.425)">
                <text x="1128.37px" y="1813.46px" style="font-family:'Arial-BoldMT', 'Arial', sans-serif;font-weight:700;font-size:104.167px;">E</text>
            </g>
            <g transform="matrix(0.0127822,0.999918,-0.999918,0.0127822,3583.92,-29.7827)">
                <text x="1128.37px" y="1813.46px" style="font-family:'Arial-BoldMT', 'Arial', sans-serif;font-weight:700;font-size:104.167px;">R</text>
            </g>
            <g transform="matrix(0.0127822,0.999918,-0.999918,0.0127822,3584.39,63.4998)">
                <text x="1128.37px" y="1813.46px" style="font-family:'Arial-BoldMT', 'Arial', sans-serif;font-weight:700;font-size:104.167px;">J</text>
            </g>
            <g transform="matrix(-0.147438,0.989071,-0.989071,-0.147438,3743.68,434.312)">
                <text x="1128.37px" y="1813.46px" style="font-family:'Arial-BoldMT', 'Arial', sans-serif;font-weight:700;font-size:104.167px;">A</text>
            </g>
            <g transform="matrix(-0.324482,0.945892,-0.945892,-0.324482,3840.21,914.17)">
                <text x="1128.37px" y="1813.46px" style="font-family:'Arial-BoldMT', 'Arial', sans-serif;font-weight:700;font-size:104.167px;">I</text>
            </g>
            <g transform="matrix(-0.418172,0.908368,-0.908368,-0.418172,3862.98,1164.56)">
                <text x="1128.37px" y="1813.46px" style="font-family:'Arial-BoldMT', 'Arial', sans-serif;font-weight:700;font-size:104.167px;">N</text>
            </g>
            <g transform="matrix(-0.58455,0.811357,-0.811357,-0.58455,3832.17,1653.66)">
                <text x="1128.37px" y="1813.46px" style="font-family:'Arial-BoldMT', 'Arial', sans-serif;font-weight:700;font-size:104.167px;">D</text>
            </g>
            <g transform="matrix(-0.741962,0.670442,-0.670442,-0.741962,3705.14,2170.08)">
                <text x="1128.37px" y="1813.46px" style="font-family:'Arial-BoldMT', 'Arial', sans-serif;font-weight:700;font-size:104.167px;">O</text>
            </g>
            <g transform="matrix(-0.789158,0.61419,-0.61419,-0.789158,3583.9,2385.51)">
                <text x="1128.37px" y="1813.46px" style="font-family:'Arial-BoldMT', 'Arial', sans-serif;font-weight:700;font-size:104.167px;">N</text>
            </g>
            <g transform="matrix(-0.894546,0.446976,-0.446976,-0.894546,3329.76,2814.18)">
                <text x="1128.37px" y="1813.46px" style="font-family:'Arial-BoldMT', 'Arial', sans-serif;font-weight:700;font-size:104.167px;">E</text>
            </g>
            <g transform="matrix(-0.96822,0.250101,-0.250101,-0.96822,2982.04,3213.24)">
                <text x="1128.37px" y="1813.46px" style="font-family:'Arial-BoldMT', 'Arial', sans-serif;font-weight:700;font-size:104.167px;">S</text>
            </g>
            <g transform="matrix(-0.982575,0.185865,-0.185865,-0.982575,2805.5,3333.7)">
                <text x="1128.37px" y="1813.46px" style="font-family:'Arial-BoldMT', 'Arial', sans-serif;font-weight:700;font-size:104.167px;">I</text>
            </g>
            <g transform="matrix(0.674276,0.738479,-0.738479,0.674276,2194.52,-1270.25)">
                <text x="1128.37px" y="1813.46px" style="font-family:'Arial-BoldMT', 'Arial', sans-serif;font-weight:700;font-size:104.167px;">G</text>
            </g>
        </g>
    </g>
</svg>
